<svg width="122" height="20" viewBox="0 0 122 20" fill="none" xmlns="http://www.w3.org/2000/svg">
<path d="M0.836 20V0.829999H9.611C11.033 0.829999 12.266 1.064 13.31 1.532C14.372 2 15.191 2.666 15.767 3.53C16.343 4.376 16.631 5.375 16.631 6.527C16.631 7.427 16.451 8.219 16.091 8.903C15.731 9.587 15.227 10.154 14.579 10.604C13.949 11.036 13.193 11.324 12.311 11.468L12.23 11.198C13.544 11.198 14.534 11.477 15.2 12.035C15.884 12.593 16.262 13.43 16.334 14.546L16.793 20H11.987L11.69 15.329C11.636 14.609 11.42 14.078 11.042 13.736C10.682 13.394 10.043 13.223 9.125 13.223H5.534V20H0.836ZM5.534 9.389H8.882C9.836 9.389 10.565 9.182 11.069 8.768C11.573 8.354 11.825 7.769 11.825 7.013C11.825 6.239 11.564 5.654 11.042 5.258C10.538 4.862 9.8 4.664 8.828 4.664H5.534V9.389ZM18.8195 20V0.829999H32.5895V4.664H23.5175V8.471H32.2655V12.305H23.5175V16.166H32.8055V20H18.8195ZM34.6936 20V0.829999H48.4636V4.664H39.3916V8.471H48.1396V12.305H39.3916V16.166H48.6796V20H34.6936ZM50.5677 20V0.829999H55.2657V18.893L52.6197 16.166H63.8517V20H50.5677ZM66.2216 20V4.664H60.5516V0.829999H76.6166V4.664H70.9466V20H66.2216ZM77.2534 20V0.829999H81.9514V20H77.2534ZM84.2154 20V0.829999H90.4254L94.9074 13.898L99.3624 0.829999H105.572V20H100.874V8.39L96.6894 19.946H93.0714L88.9134 8.39V20H84.2154ZM107.841 20V0.829999H121.611V4.664H112.539V8.471H121.287V12.305H112.539V16.166H121.827V20H107.841Z" fill="white"/>
</svg>
