<svg width="141" height="20" viewBox="0 0 141 20" fill="none" xmlns="http://www.w3.org/2000/svg">
<path d="M0.736 20V0.119999H10.228C11.7213 0.119999 13.0187 0.362666 14.12 0.848C15.24 1.33333 16.0987 2.01467 16.696 2.892C17.312 3.76933 17.62 4.80533 17.62 6C17.62 6.93333 17.4427 7.764 17.088 8.492C16.7333 9.20133 16.22 9.78933 15.548 10.256C14.876 10.7227 14.064 11.04 13.112 11.208L13.056 10.928C14.456 10.928 15.5013 11.2267 16.192 11.824C16.8827 12.4027 17.2653 13.2613 17.34 14.4L17.788 20H12.188L11.908 15.352C11.8707 14.624 11.6747 14.092 11.32 13.756C10.9653 13.4013 10.34 13.224 9.444 13.224H6.224V20H0.736ZM6.224 8.828H9.22C10.1347 8.828 10.8253 8.64133 11.292 8.268C11.7773 7.876 12.02 7.33467 12.02 6.644C12.02 5.93467 11.7773 5.40267 11.292 5.048C10.8253 4.69333 10.1347 4.516 9.22 4.516H6.224V8.828ZM21.2843 20V0.119999H36.0123V4.516H26.7723V7.848H35.6763V12.216H26.7723V15.604H36.2363V20H21.2843ZM39.6451 20V0.119999H54.3731V4.516H45.1331V7.848H54.0371V12.216H45.1331V15.604H54.5971V20H39.6451ZM57.9512 20V0.119999H63.4392V18.852L60.3032 15.604H72.0912V20H57.9512Z" fill="#9EA3FB"/>
<path d="M76.1402 20V4.516H70.3442V0.119999H87.4522V4.516H81.6562V20H76.1402ZM89.7235 20V0.119999H95.2115V20H89.7235ZM98.9788 20V0.119999H106.203L110.403 12.748L114.603 0.119999H121.827V20H116.339V8.8L112.335 19.916H108.443L104.467 8.8V20H98.9788ZM125.597 20V0.119999H140.325V4.516H131.085V7.848H139.989V12.216H131.085V15.604H140.549V20H125.597Z" fill="white"/>
</svg>
